<mxfile host="app.diagrams.net" agent="Mozilla/5.0 (Macintosh; Intel Mac OS X 10_15_7) AppleWebKit/537.36 (KHTML, like Gecko) Chrome/133.0.0.0 Safari/537.36" version="26.0.16">
  <diagram id="prtHgNgQTEPvFCAcTncT" name="Page-1">
    <mxGraphModel dx="3180" dy="3299" grid="1" gridSize="10" guides="1" tooltips="1" connect="1" arrows="1" fold="1" page="1" pageScale="1" pageWidth="827" pageHeight="1169" math="0" shadow="0">
      <root>
        <mxCell id="0" />
        <mxCell id="1" parent="0" />
        <mxCell id="4gxzHDE2BIGh4aAOhK9_-4" value="Luồn hoạt động chính Đặt Lịch Khám Bệnh" style="swimlane;html=1;childLayout=stackLayout;resizeParent=1;resizeParentMax=0;startSize=20;whiteSpace=wrap;strokeColor=default;align=center;verticalAlign=middle;fontFamily=Helvetica;fontSize=12;fontColor=default;fillColor=default;" vertex="1" parent="1">
          <mxGeometry x="20" y="-40" width="1150" height="2120" as="geometry" />
        </mxCell>
        <mxCell id="4gxzHDE2BIGh4aAOhK9_-5" value="Bệnh Nhân" style="swimlane;html=1;startSize=20;strokeColor=default;align=center;verticalAlign=top;fontFamily=Helvetica;fontSize=12;fontColor=default;fillColor=default;" vertex="1" parent="4gxzHDE2BIGh4aAOhK9_-4">
          <mxGeometry y="20" width="450" height="2100" as="geometry" />
        </mxCell>
        <mxCell id="4gxzHDE2BIGh4aAOhK9_-6" style="rounded=0;orthogonalLoop=1;jettySize=auto;html=1;fontFamily=Helvetica;fontSize=12;fontColor=default;" edge="1" parent="4gxzHDE2BIGh4aAOhK9_-5" source="4gxzHDE2BIGh4aAOhK9_-7" target="4gxzHDE2BIGh4aAOhK9_-8">
          <mxGeometry relative="1" as="geometry" />
        </mxCell>
        <mxCell id="4gxzHDE2BIGh4aAOhK9_-7" value="" style="strokeWidth=2;html=1;shape=mxgraph.flowchart.start_2;whiteSpace=wrap;fillColor=#000000;strokeColor=default;align=center;verticalAlign=top;fontFamily=Helvetica;fontSize=12;fontColor=default;" vertex="1" parent="4gxzHDE2BIGh4aAOhK9_-5">
          <mxGeometry x="20" y="50" width="40" height="40" as="geometry" />
        </mxCell>
        <mxCell id="4gxzHDE2BIGh4aAOhK9_-8" value="Truy cập vào ứng dụng &quot;Bệnh viện số&quot;" style="rounded=1;whiteSpace=wrap;html=1;fillColor=#ffffff;strokeColor=default;align=center;verticalAlign=top;fontFamily=Helvetica;fontSize=12;fontColor=default;" vertex="1" parent="4gxzHDE2BIGh4aAOhK9_-5">
          <mxGeometry x="100" y="47.5" width="126" height="45" as="geometry" />
        </mxCell>
        <mxCell id="4gxzHDE2BIGh4aAOhK9_-10" value="Đăng nhập tài khoản" style="rounded=1;whiteSpace=wrap;html=1;fillColor=#ffffff;strokeColor=default;align=center;verticalAlign=top;fontFamily=Helvetica;fontSize=12;fontColor=default;" vertex="1" parent="4gxzHDE2BIGh4aAOhK9_-5">
          <mxGeometry x="100" y="130" width="126" height="30" as="geometry" />
        </mxCell>
        <mxCell id="4gxzHDE2BIGh4aAOhK9_-51" value="Truy cập mục đặt lịch khám" style="rounded=1;whiteSpace=wrap;html=1;fillColor=#ffffff;strokeColor=default;align=center;verticalAlign=top;fontFamily=Helvetica;fontSize=12;fontColor=default;" vertex="1" parent="4gxzHDE2BIGh4aAOhK9_-5">
          <mxGeometry x="100" y="200" width="126" height="40" as="geometry" />
        </mxCell>
        <mxCell id="4gxzHDE2BIGh4aAOhK9_-54" value="Nhập thông tin người đặt lịch" style="rounded=1;whiteSpace=wrap;html=1;fillColor=#ffffff;strokeColor=default;align=center;verticalAlign=top;fontFamily=Helvetica;fontSize=12;fontColor=default;" vertex="1" parent="4gxzHDE2BIGh4aAOhK9_-5">
          <mxGeometry x="100" y="300" width="126" height="40" as="geometry" />
        </mxCell>
        <mxCell id="4gxzHDE2BIGh4aAOhK9_-60" value="Bấm chọn &quot;Thêm người khám &quot;" style="rhombus;whiteSpace=wrap;html=1;fillColor=#ffffff;" vertex="1" parent="4gxzHDE2BIGh4aAOhK9_-5">
          <mxGeometry x="118" y="390" width="90" height="110" as="geometry" />
        </mxCell>
        <mxCell id="4gxzHDE2BIGh4aAOhK9_-61" style="edgeStyle=orthogonalEdgeStyle;rounded=0;orthogonalLoop=1;jettySize=auto;html=1;entryX=0.5;entryY=0;entryDx=0;entryDy=0;fontFamily=Helvetica;fontSize=12;fontColor=default;exitX=0.5;exitY=1;exitDx=0;exitDy=0;" edge="1" parent="4gxzHDE2BIGh4aAOhK9_-5" source="4gxzHDE2BIGh4aAOhK9_-54" target="4gxzHDE2BIGh4aAOhK9_-60">
          <mxGeometry relative="1" as="geometry">
            <mxPoint x="270" y="460" as="sourcePoint" />
            <mxPoint x="740" y="520" as="targetPoint" />
          </mxGeometry>
        </mxCell>
        <mxCell id="4gxzHDE2BIGh4aAOhK9_-63" value="Nhập thông tin người khám và bấm &quot;Hoàn Tất&quot;" style="rounded=1;whiteSpace=wrap;html=1;fillColor=#ffffff;strokeColor=default;align=center;verticalAlign=top;fontFamily=Helvetica;fontSize=12;fontColor=default;" vertex="1" parent="4gxzHDE2BIGh4aAOhK9_-5">
          <mxGeometry x="100" y="530" width="126" height="50" as="geometry" />
        </mxCell>
        <mxCell id="4gxzHDE2BIGh4aAOhK9_-66" value="Chọn địa điểm khám" style="rounded=1;whiteSpace=wrap;html=1;fillColor=#ffffff;strokeColor=default;align=center;verticalAlign=top;fontFamily=Helvetica;fontSize=12;fontColor=default;" vertex="1" parent="4gxzHDE2BIGh4aAOhK9_-5">
          <mxGeometry x="100" y="620" width="126" height="40" as="geometry" />
        </mxCell>
        <mxCell id="4gxzHDE2BIGh4aAOhK9_-69" style="edgeStyle=orthogonalEdgeStyle;rounded=0;orthogonalLoop=1;jettySize=auto;html=1;entryX=0;entryY=0.5;entryDx=0;entryDy=0;fontFamily=Helvetica;fontSize=12;fontColor=default;exitX=0;exitY=0.5;exitDx=0;exitDy=0;" edge="1" parent="4gxzHDE2BIGh4aAOhK9_-5" source="4gxzHDE2BIGh4aAOhK9_-60" target="4gxzHDE2BIGh4aAOhK9_-66">
          <mxGeometry relative="1" as="geometry">
            <mxPoint x="270" y="500" as="sourcePoint" />
            <mxPoint x="740" y="560" as="targetPoint" />
            <Array as="points">
              <mxPoint x="40" y="445" />
              <mxPoint x="40" y="640" />
            </Array>
          </mxGeometry>
        </mxCell>
        <mxCell id="4gxzHDE2BIGh4aAOhK9_-70" value="No" style="edgeLabel;html=1;align=center;verticalAlign=middle;resizable=0;points=[];" vertex="1" connectable="0" parent="4gxzHDE2BIGh4aAOhK9_-69">
          <mxGeometry x="-0.0993" y="-1" relative="1" as="geometry">
            <mxPoint y="1" as="offset" />
          </mxGeometry>
        </mxCell>
        <mxCell id="4gxzHDE2BIGh4aAOhK9_-77" value="Chọn Bệnh viện" style="rounded=1;whiteSpace=wrap;html=1;fillColor=#ffffff;strokeColor=default;align=center;verticalAlign=middle;fontFamily=Helvetica;fontSize=12;fontColor=default;" vertex="1" parent="4gxzHDE2BIGh4aAOhK9_-5">
          <mxGeometry x="100" y="740" width="126" height="40" as="geometry" />
        </mxCell>
        <mxCell id="4gxzHDE2BIGh4aAOhK9_-80" style="edgeStyle=orthogonalEdgeStyle;rounded=0;orthogonalLoop=1;jettySize=auto;html=1;entryX=0.5;entryY=0;entryDx=0;entryDy=0;fontFamily=Helvetica;fontSize=12;fontColor=default;exitX=0;exitY=0.5;exitDx=0;exitDy=0;" edge="1" parent="4gxzHDE2BIGh4aAOhK9_-5" source="4gxzHDE2BIGh4aAOhK9_-77" target="4gxzHDE2BIGh4aAOhK9_-81">
          <mxGeometry relative="1" as="geometry">
            <mxPoint x="300" y="770" as="sourcePoint" />
            <mxPoint x="100" y="840" as="targetPoint" />
          </mxGeometry>
        </mxCell>
        <mxCell id="4gxzHDE2BIGh4aAOhK9_-81" value="Chọn &quot;Phương thức khám&quot;" style="rhombus;whiteSpace=wrap;html=1;fillColor=#ffffff;" vertex="1" parent="4gxzHDE2BIGh4aAOhK9_-5">
          <mxGeometry x="120" y="855" width="110" height="110" as="geometry" />
        </mxCell>
        <mxCell id="4gxzHDE2BIGh4aAOhK9_-84" value="Chọn bác sĩ" style="rounded=1;whiteSpace=wrap;html=1;fillColor=#ffffff;strokeColor=default;align=center;verticalAlign=middle;fontFamily=Helvetica;fontSize=12;fontColor=default;" vertex="1" parent="4gxzHDE2BIGh4aAOhK9_-5">
          <mxGeometry x="100" y="1450" width="126" height="40" as="geometry" />
        </mxCell>
        <mxCell id="4gxzHDE2BIGh4aAOhK9_-86" value="Chọn chuyên khoa" style="rounded=1;whiteSpace=wrap;html=1;fillColor=#ffffff;strokeColor=default;align=center;verticalAlign=middle;fontFamily=Helvetica;fontSize=12;fontColor=default;" vertex="1" parent="4gxzHDE2BIGh4aAOhK9_-5">
          <mxGeometry x="100" y="1300" width="126" height="40" as="geometry" />
        </mxCell>
        <mxCell id="4gxzHDE2BIGh4aAOhK9_-89" value="Tìm và chọn triệu chứng" style="rounded=1;whiteSpace=wrap;html=1;fillColor=#ffffff;strokeColor=default;align=center;verticalAlign=middle;fontFamily=Helvetica;fontSize=12;fontColor=default;" vertex="1" parent="4gxzHDE2BIGh4aAOhK9_-5">
          <mxGeometry x="100" y="1140" width="126" height="40" as="geometry" />
        </mxCell>
        <mxCell id="4gxzHDE2BIGh4aAOhK9_-91" value="Thiết lập ngày giời khám&amp;nbsp;" style="rounded=1;whiteSpace=wrap;html=1;fillColor=#ffffff;strokeColor=default;align=center;verticalAlign=middle;fontFamily=Helvetica;fontSize=12;fontColor=default;" vertex="1" parent="4gxzHDE2BIGh4aAOhK9_-5">
          <mxGeometry x="100" y="1550" width="126" height="40" as="geometry" />
        </mxCell>
        <mxCell id="4gxzHDE2BIGh4aAOhK9_-109" style="edgeStyle=orthogonalEdgeStyle;rounded=0;orthogonalLoop=1;jettySize=auto;html=1;entryX=1;entryY=0.5;entryDx=0;entryDy=0;fontFamily=Helvetica;fontSize=12;fontColor=default;exitX=0;exitY=0.5;exitDx=0;exitDy=0;" edge="1" parent="4gxzHDE2BIGh4aAOhK9_-5" source="4gxzHDE2BIGh4aAOhK9_-84" target="4gxzHDE2BIGh4aAOhK9_-91">
          <mxGeometry relative="1" as="geometry">
            <mxPoint x="300" y="1310" as="sourcePoint" />
            <mxPoint x="770" y="1370" as="targetPoint" />
          </mxGeometry>
        </mxCell>
        <mxCell id="4gxzHDE2BIGh4aAOhK9_-112" value="Xác nhận đặt lịch" style="rounded=1;whiteSpace=wrap;html=1;fillColor=#ffffff;strokeColor=default;align=center;verticalAlign=middle;fontFamily=Helvetica;fontSize=12;fontColor=default;" vertex="1" parent="4gxzHDE2BIGh4aAOhK9_-5">
          <mxGeometry x="100" y="1660" width="126" height="40" as="geometry" />
        </mxCell>
        <mxCell id="4gxzHDE2BIGh4aAOhK9_-44" value="" style="ellipse;html=1;shape=endState;fillColor=#000000;strokeColor=#ff0000;align=center;verticalAlign=top;fontFamily=Helvetica;fontSize=12;fontColor=default;" vertex="1" parent="4gxzHDE2BIGh4aAOhK9_-5">
          <mxGeometry x="140" y="1850" width="56" height="60" as="geometry" />
        </mxCell>
        <mxCell id="4gxzHDE2BIGh4aAOhK9_-20" value="Hệ Thống" style="swimlane;html=1;startSize=20;strokeColor=default;align=center;verticalAlign=top;fontFamily=Helvetica;fontSize=12;fontColor=default;fillColor=default;" vertex="1" parent="4gxzHDE2BIGh4aAOhK9_-4">
          <mxGeometry x="450" y="20" width="350" height="2100" as="geometry" />
        </mxCell>
        <mxCell id="4gxzHDE2BIGh4aAOhK9_-21" value="Hiện thị trang chủ" style="rounded=1;whiteSpace=wrap;html=1;fillColor=#ffffff;strokeColor=default;align=center;verticalAlign=top;fontFamily=Helvetica;fontSize=12;fontColor=default;" vertex="1" parent="4gxzHDE2BIGh4aAOhK9_-20">
          <mxGeometry x="120" y="55" width="126" height="30" as="geometry" />
        </mxCell>
        <mxCell id="4gxzHDE2BIGh4aAOhK9_-12" value="Xác thực đăng nhập thành công" style="rounded=1;whiteSpace=wrap;html=1;fillColor=#ffffff;strokeColor=default;align=center;verticalAlign=top;fontFamily=Helvetica;fontSize=12;fontColor=default;" vertex="1" parent="4gxzHDE2BIGh4aAOhK9_-20">
          <mxGeometry x="120" y="200" width="126" height="40" as="geometry" />
        </mxCell>
        <mxCell id="4gxzHDE2BIGh4aAOhK9_-52" value="Hiện thị giao diện Đặt lịch khám" style="rounded=1;whiteSpace=wrap;html=1;fillColor=#ffffff;strokeColor=default;align=center;verticalAlign=top;fontFamily=Helvetica;fontSize=12;fontColor=default;" vertex="1" parent="4gxzHDE2BIGh4aAOhK9_-20">
          <mxGeometry x="120" y="260" width="126" height="40" as="geometry" />
        </mxCell>
        <mxCell id="4gxzHDE2BIGh4aAOhK9_-62" value="Hiện thị giao diện thêm người khám" style="rounded=1;whiteSpace=wrap;html=1;fillColor=#ffffff;strokeColor=default;align=center;verticalAlign=top;fontFamily=Helvetica;fontSize=12;fontColor=default;" vertex="1" parent="4gxzHDE2BIGh4aAOhK9_-20">
          <mxGeometry x="112" y="425" width="126" height="40" as="geometry" />
        </mxCell>
        <mxCell id="4gxzHDE2BIGh4aAOhK9_-64" value="Cập nhật danh sách người khám&amp;nbsp;" style="rounded=1;whiteSpace=wrap;html=1;fillColor=#ffffff;strokeColor=default;align=center;verticalAlign=top;fontFamily=Helvetica;fontSize=12;fontColor=default;" vertex="1" parent="4gxzHDE2BIGh4aAOhK9_-20">
          <mxGeometry x="112" y="580" width="126" height="40" as="geometry" />
        </mxCell>
        <mxCell id="4gxzHDE2BIGh4aAOhK9_-75" value="Hiện thị danh sách bệnh viện" style="rounded=1;whiteSpace=wrap;html=1;fillColor=#ffffff;strokeColor=default;align=center;verticalAlign=top;fontFamily=Helvetica;fontSize=12;fontColor=default;" vertex="1" parent="4gxzHDE2BIGh4aAOhK9_-20">
          <mxGeometry x="112" y="690" width="126" height="40" as="geometry" />
        </mxCell>
        <mxCell id="4gxzHDE2BIGh4aAOhK9_-83" value="Hiện thị danh sách bán sĩ" style="rounded=1;whiteSpace=wrap;html=1;fillColor=#ffffff;strokeColor=default;align=center;verticalAlign=middle;fontFamily=Helvetica;fontSize=12;fontColor=default;" vertex="1" parent="4gxzHDE2BIGh4aAOhK9_-20">
          <mxGeometry x="120" y="890" width="126" height="40" as="geometry" />
        </mxCell>
        <mxCell id="4gxzHDE2BIGh4aAOhK9_-85" value="Hiện thị danh sách chuyên khoa" style="rounded=1;whiteSpace=wrap;html=1;fillColor=#ffffff;strokeColor=default;align=center;verticalAlign=middle;fontFamily=Helvetica;fontSize=12;fontColor=default;" vertex="1" parent="4gxzHDE2BIGh4aAOhK9_-20">
          <mxGeometry x="120" y="980" width="126" height="40" as="geometry" />
        </mxCell>
        <mxCell id="4gxzHDE2BIGh4aAOhK9_-87" value="Hệ thống tự động điều phối bác sĩ" style="rounded=1;whiteSpace=wrap;html=1;fillColor=#ffffff;strokeColor=default;align=center;verticalAlign=middle;fontFamily=Helvetica;fontSize=12;fontColor=default;" vertex="1" parent="4gxzHDE2BIGh4aAOhK9_-20">
          <mxGeometry x="120" y="1360" width="126" height="40" as="geometry" />
        </mxCell>
        <mxCell id="4gxzHDE2BIGh4aAOhK9_-88" value="Hiện thị danh sách triệu chứng" style="rounded=1;whiteSpace=wrap;html=1;fillColor=#ffffff;strokeColor=default;align=center;verticalAlign=middle;fontFamily=Helvetica;fontSize=12;fontColor=default;" vertex="1" parent="4gxzHDE2BIGh4aAOhK9_-20">
          <mxGeometry x="120" y="1070" width="126" height="40" as="geometry" />
        </mxCell>
        <mxCell id="4gxzHDE2BIGh4aAOhK9_-90" value="Gợi ý chuyên khoa điều trị" style="rounded=1;whiteSpace=wrap;html=1;fillColor=#ffffff;strokeColor=default;align=center;verticalAlign=middle;fontFamily=Helvetica;fontSize=12;fontColor=default;" vertex="1" parent="4gxzHDE2BIGh4aAOhK9_-20">
          <mxGeometry x="120" y="1200" width="126" height="40" as="geometry" />
        </mxCell>
        <mxCell id="4gxzHDE2BIGh4aAOhK9_-110" value="Hiện thị lịch trống" style="rounded=1;whiteSpace=wrap;html=1;fillColor=#ffffff;strokeColor=default;align=center;verticalAlign=middle;fontFamily=Helvetica;fontSize=12;fontColor=default;" vertex="1" parent="4gxzHDE2BIGh4aAOhK9_-20">
          <mxGeometry x="112" y="1590" width="126" height="40" as="geometry" />
        </mxCell>
        <mxCell id="4gxzHDE2BIGh4aAOhK9_-113" value="Gửi yêu cầu xác nhận đến CSKH" style="rounded=1;whiteSpace=wrap;html=1;fillColor=#ffffff;strokeColor=default;align=center;verticalAlign=middle;fontFamily=Helvetica;fontSize=12;fontColor=default;" vertex="1" parent="4gxzHDE2BIGh4aAOhK9_-20">
          <mxGeometry x="100" y="1720" width="126" height="40" as="geometry" />
        </mxCell>
        <mxCell id="4gxzHDE2BIGh4aAOhK9_-116" value="Thông báo hoàn tất đặt lịch" style="rounded=1;whiteSpace=wrap;html=1;fillColor=#ffffff;strokeColor=default;align=center;verticalAlign=middle;fontFamily=Helvetica;fontSize=12;fontColor=default;" vertex="1" parent="4gxzHDE2BIGh4aAOhK9_-20">
          <mxGeometry x="100" y="1860" width="126" height="40" as="geometry" />
        </mxCell>
        <mxCell id="4gxzHDE2BIGh4aAOhK9_-29" style="rounded=0;orthogonalLoop=1;jettySize=auto;html=1;entryX=0;entryY=0.5;entryDx=0;entryDy=0;fontFamily=Helvetica;fontSize=12;fontColor=default;" edge="1" parent="4gxzHDE2BIGh4aAOhK9_-4" source="4gxzHDE2BIGh4aAOhK9_-8" target="4gxzHDE2BIGh4aAOhK9_-21">
          <mxGeometry relative="1" as="geometry" />
        </mxCell>
        <mxCell id="4gxzHDE2BIGh4aAOhK9_-30" style="edgeStyle=orthogonalEdgeStyle;rounded=0;orthogonalLoop=1;jettySize=auto;html=1;entryX=1;entryY=0.5;entryDx=0;entryDy=0;fontFamily=Helvetica;fontSize=12;fontColor=default;exitX=1;exitY=0.5;exitDx=0;exitDy=0;" edge="1" parent="4gxzHDE2BIGh4aAOhK9_-4" source="4gxzHDE2BIGh4aAOhK9_-21" target="4gxzHDE2BIGh4aAOhK9_-10">
          <mxGeometry relative="1" as="geometry" />
        </mxCell>
        <mxCell id="4gxzHDE2BIGh4aAOhK9_-42" value="Chăm sóc khách hàng" style="swimlane;html=1;startSize=20;strokeColor=default;align=center;verticalAlign=top;fontFamily=Helvetica;fontSize=12;fontColor=default;fillColor=default;" vertex="1" parent="4gxzHDE2BIGh4aAOhK9_-4">
          <mxGeometry x="800" y="20" width="350" height="2100" as="geometry" />
        </mxCell>
        <mxCell id="4gxzHDE2BIGh4aAOhK9_-114" value="Gọi điện xác nhận đặt lịch đến Bệnh Nhân" style="rounded=1;whiteSpace=wrap;html=1;fillColor=#ffffff;strokeColor=default;align=center;verticalAlign=middle;fontFamily=Helvetica;fontSize=12;fontColor=default;" vertex="1" parent="4gxzHDE2BIGh4aAOhK9_-42">
          <mxGeometry x="90" y="1720" width="126" height="40" as="geometry" />
        </mxCell>
        <mxCell id="4gxzHDE2BIGh4aAOhK9_-115" value="Xác nhận lịch hẹn" style="rounded=1;whiteSpace=wrap;html=1;fillColor=#ffffff;strokeColor=default;align=center;verticalAlign=middle;fontFamily=Helvetica;fontSize=12;fontColor=default;" vertex="1" parent="4gxzHDE2BIGh4aAOhK9_-42">
          <mxGeometry x="90" y="1860" width="126" height="40" as="geometry" />
        </mxCell>
        <mxCell id="4gxzHDE2BIGh4aAOhK9_-121" style="edgeStyle=orthogonalEdgeStyle;rounded=0;orthogonalLoop=1;jettySize=auto;html=1;entryX=1;entryY=0.5;entryDx=0;entryDy=0;fontFamily=Helvetica;fontSize=12;fontColor=default;exitX=1;exitY=0.5;exitDx=0;exitDy=0;" edge="1" parent="4gxzHDE2BIGh4aAOhK9_-42" source="4gxzHDE2BIGh4aAOhK9_-114" target="4gxzHDE2BIGh4aAOhK9_-115">
          <mxGeometry relative="1" as="geometry">
            <mxPoint x="-540" y="1880" as="sourcePoint" />
            <mxPoint x="-70" y="1940" as="targetPoint" />
          </mxGeometry>
        </mxCell>
        <mxCell id="4gxzHDE2BIGh4aAOhK9_-9" style="rounded=0;orthogonalLoop=1;jettySize=auto;html=1;entryX=0.5;entryY=0;entryDx=0;entryDy=0;fontFamily=Helvetica;fontSize=12;fontColor=default;edgeStyle=orthogonalEdgeStyle;exitX=0;exitY=0.5;exitDx=0;exitDy=0;" edge="1" parent="4gxzHDE2BIGh4aAOhK9_-4" source="4gxzHDE2BIGh4aAOhK9_-10" target="4gxzHDE2BIGh4aAOhK9_-12">
          <mxGeometry relative="1" as="geometry" />
        </mxCell>
        <mxCell id="4gxzHDE2BIGh4aAOhK9_-11" style="edgeStyle=orthogonalEdgeStyle;rounded=0;orthogonalLoop=1;jettySize=auto;html=1;entryX=1;entryY=0.5;entryDx=0;entryDy=0;fontFamily=Helvetica;fontSize=12;fontColor=default;" edge="1" parent="4gxzHDE2BIGh4aAOhK9_-4" source="4gxzHDE2BIGh4aAOhK9_-12" target="4gxzHDE2BIGh4aAOhK9_-51">
          <mxGeometry relative="1" as="geometry">
            <mxPoint x="100" y="280" as="targetPoint" />
          </mxGeometry>
        </mxCell>
        <mxCell id="4gxzHDE2BIGh4aAOhK9_-53" style="edgeStyle=orthogonalEdgeStyle;rounded=0;orthogonalLoop=1;jettySize=auto;html=1;entryX=0;entryY=0.5;entryDx=0;entryDy=0;fontFamily=Helvetica;fontSize=12;fontColor=default;exitX=0;exitY=0.5;exitDx=0;exitDy=0;" edge="1" parent="4gxzHDE2BIGh4aAOhK9_-4" source="4gxzHDE2BIGh4aAOhK9_-51" target="4gxzHDE2BIGh4aAOhK9_-52">
          <mxGeometry relative="1" as="geometry">
            <mxPoint x="580" y="250" as="sourcePoint" />
            <mxPoint x="183" y="270" as="targetPoint" />
          </mxGeometry>
        </mxCell>
        <mxCell id="4gxzHDE2BIGh4aAOhK9_-55" style="edgeStyle=orthogonalEdgeStyle;rounded=0;orthogonalLoop=1;jettySize=auto;html=1;entryX=1;entryY=0.5;entryDx=0;entryDy=0;fontFamily=Helvetica;fontSize=12;fontColor=default;exitX=1;exitY=0.5;exitDx=0;exitDy=0;" edge="1" parent="4gxzHDE2BIGh4aAOhK9_-4" source="4gxzHDE2BIGh4aAOhK9_-52" target="4gxzHDE2BIGh4aAOhK9_-54">
          <mxGeometry relative="1" as="geometry">
            <mxPoint x="560" y="410" as="sourcePoint" />
            <mxPoint x="740" y="490" as="targetPoint" />
          </mxGeometry>
        </mxCell>
        <mxCell id="4gxzHDE2BIGh4aAOhK9_-67" style="edgeStyle=orthogonalEdgeStyle;rounded=0;orthogonalLoop=1;jettySize=auto;html=1;entryX=0;entryY=0.5;entryDx=0;entryDy=0;fontFamily=Helvetica;fontSize=12;fontColor=default;exitX=1;exitY=0.5;exitDx=0;exitDy=0;" edge="1" parent="4gxzHDE2BIGh4aAOhK9_-4" source="4gxzHDE2BIGh4aAOhK9_-60" target="4gxzHDE2BIGh4aAOhK9_-62">
          <mxGeometry relative="1" as="geometry">
            <mxPoint x="270" y="520" as="sourcePoint" />
            <mxPoint x="740" y="580" as="targetPoint" />
          </mxGeometry>
        </mxCell>
        <mxCell id="4gxzHDE2BIGh4aAOhK9_-68" value="Yes" style="edgeLabel;html=1;align=center;verticalAlign=middle;resizable=0;points=[];" vertex="1" connectable="0" parent="4gxzHDE2BIGh4aAOhK9_-67">
          <mxGeometry x="-0.4727" y="-1" relative="1" as="geometry">
            <mxPoint as="offset" />
          </mxGeometry>
        </mxCell>
        <mxCell id="4gxzHDE2BIGh4aAOhK9_-71" style="edgeStyle=orthogonalEdgeStyle;rounded=0;orthogonalLoop=1;jettySize=auto;html=1;entryX=1;entryY=0.5;entryDx=0;entryDy=0;fontFamily=Helvetica;fontSize=12;fontColor=default;exitX=1;exitY=0.5;exitDx=0;exitDy=0;" edge="1" parent="4gxzHDE2BIGh4aAOhK9_-4" source="4gxzHDE2BIGh4aAOhK9_-62" target="4gxzHDE2BIGh4aAOhK9_-63">
          <mxGeometry relative="1" as="geometry">
            <mxPoint x="270" y="430" as="sourcePoint" />
            <mxPoint x="740" y="490" as="targetPoint" />
          </mxGeometry>
        </mxCell>
        <mxCell id="4gxzHDE2BIGh4aAOhK9_-72" style="edgeStyle=orthogonalEdgeStyle;rounded=0;orthogonalLoop=1;jettySize=auto;html=1;entryX=0;entryY=0.5;entryDx=0;entryDy=0;fontFamily=Helvetica;fontSize=12;fontColor=default;exitX=0;exitY=0.5;exitDx=0;exitDy=0;" edge="1" parent="4gxzHDE2BIGh4aAOhK9_-4" source="4gxzHDE2BIGh4aAOhK9_-63" target="4gxzHDE2BIGh4aAOhK9_-64">
          <mxGeometry relative="1" as="geometry">
            <mxPoint x="698" y="475" as="sourcePoint" />
            <mxPoint x="236" y="585" as="targetPoint" />
          </mxGeometry>
        </mxCell>
        <mxCell id="4gxzHDE2BIGh4aAOhK9_-74" style="edgeStyle=orthogonalEdgeStyle;rounded=0;orthogonalLoop=1;jettySize=auto;html=1;entryX=1;entryY=0.5;entryDx=0;entryDy=0;fontFamily=Helvetica;fontSize=12;fontColor=default;exitX=1;exitY=0.5;exitDx=0;exitDy=0;" edge="1" parent="4gxzHDE2BIGh4aAOhK9_-4" source="4gxzHDE2BIGh4aAOhK9_-64" target="4gxzHDE2BIGh4aAOhK9_-66">
          <mxGeometry relative="1" as="geometry">
            <mxPoint x="680" y="670" as="sourcePoint" />
            <mxPoint x="740" y="680" as="targetPoint" />
          </mxGeometry>
        </mxCell>
        <mxCell id="4gxzHDE2BIGh4aAOhK9_-76" style="edgeStyle=orthogonalEdgeStyle;rounded=0;orthogonalLoop=1;jettySize=auto;html=1;entryX=0;entryY=0.5;entryDx=0;entryDy=0;fontFamily=Helvetica;fontSize=12;fontColor=default;exitX=0.5;exitY=1;exitDx=0;exitDy=0;" edge="1" parent="4gxzHDE2BIGh4aAOhK9_-4" source="4gxzHDE2BIGh4aAOhK9_-66" target="4gxzHDE2BIGh4aAOhK9_-75">
          <mxGeometry relative="1" as="geometry">
            <mxPoint x="300" y="450" as="sourcePoint" />
            <mxPoint x="770" y="510" as="targetPoint" />
          </mxGeometry>
        </mxCell>
        <mxCell id="4gxzHDE2BIGh4aAOhK9_-78" style="edgeStyle=orthogonalEdgeStyle;rounded=0;orthogonalLoop=1;jettySize=auto;html=1;entryX=1;entryY=0.5;entryDx=0;entryDy=0;fontFamily=Helvetica;fontSize=12;fontColor=default;exitX=1;exitY=0.5;exitDx=0;exitDy=0;" edge="1" parent="4gxzHDE2BIGh4aAOhK9_-4" source="4gxzHDE2BIGh4aAOhK9_-75" target="4gxzHDE2BIGh4aAOhK9_-77">
          <mxGeometry relative="1" as="geometry">
            <mxPoint x="173" y="690" as="sourcePoint" />
            <mxPoint x="572" y="740" as="targetPoint" />
          </mxGeometry>
        </mxCell>
        <mxCell id="4gxzHDE2BIGh4aAOhK9_-93" style="edgeStyle=orthogonalEdgeStyle;rounded=0;orthogonalLoop=1;jettySize=auto;html=1;entryX=0;entryY=0.5;entryDx=0;entryDy=0;fontFamily=Helvetica;fontSize=12;fontColor=default;exitX=1;exitY=0.5;exitDx=0;exitDy=0;" edge="1" parent="4gxzHDE2BIGh4aAOhK9_-4" source="4gxzHDE2BIGh4aAOhK9_-81" target="4gxzHDE2BIGh4aAOhK9_-83">
          <mxGeometry relative="1" as="geometry">
            <mxPoint x="698" y="740" as="sourcePoint" />
            <mxPoint x="236" y="790" as="targetPoint" />
          </mxGeometry>
        </mxCell>
        <mxCell id="4gxzHDE2BIGh4aAOhK9_-96" value="Đặt lịch khám theo bác sĩ" style="edgeLabel;html=1;align=center;verticalAlign=middle;resizable=0;points=[];" vertex="1" connectable="0" parent="4gxzHDE2BIGh4aAOhK9_-93">
          <mxGeometry x="-0.6489" relative="1" as="geometry">
            <mxPoint x="90" as="offset" />
          </mxGeometry>
        </mxCell>
        <mxCell id="4gxzHDE2BIGh4aAOhK9_-94" style="edgeStyle=orthogonalEdgeStyle;rounded=0;orthogonalLoop=1;jettySize=auto;html=1;entryX=0;entryY=0.5;entryDx=0;entryDy=0;fontFamily=Helvetica;fontSize=12;fontColor=default;exitX=0.5;exitY=1;exitDx=0;exitDy=0;" edge="1" parent="4gxzHDE2BIGh4aAOhK9_-4" source="4gxzHDE2BIGh4aAOhK9_-81" target="4gxzHDE2BIGh4aAOhK9_-85">
          <mxGeometry relative="1" as="geometry">
            <mxPoint x="240" y="940" as="sourcePoint" />
            <mxPoint x="580" y="940" as="targetPoint" />
          </mxGeometry>
        </mxCell>
        <mxCell id="4gxzHDE2BIGh4aAOhK9_-97" value="Đặt lịch khám theo chuyên khoa" style="edgeLabel;html=1;align=center;verticalAlign=middle;resizable=0;points=[];" vertex="1" connectable="0" parent="4gxzHDE2BIGh4aAOhK9_-94">
          <mxGeometry x="0.1397" y="2" relative="1" as="geometry">
            <mxPoint x="-35" y="2" as="offset" />
          </mxGeometry>
        </mxCell>
        <mxCell id="4gxzHDE2BIGh4aAOhK9_-95" style="edgeStyle=orthogonalEdgeStyle;rounded=0;orthogonalLoop=1;jettySize=auto;html=1;entryX=0;entryY=0.5;entryDx=0;entryDy=0;fontFamily=Helvetica;fontSize=12;fontColor=default;exitX=0;exitY=0.5;exitDx=0;exitDy=0;" edge="1" parent="4gxzHDE2BIGh4aAOhK9_-4" source="4gxzHDE2BIGh4aAOhK9_-81" target="4gxzHDE2BIGh4aAOhK9_-88">
          <mxGeometry relative="1" as="geometry">
            <mxPoint x="185" y="995" as="sourcePoint" />
            <mxPoint x="580" y="1030" as="targetPoint" />
          </mxGeometry>
        </mxCell>
        <mxCell id="4gxzHDE2BIGh4aAOhK9_-98" value="Đặt lịch khám theo triệu chứng" style="edgeLabel;html=1;align=center;verticalAlign=middle;resizable=0;points=[];" vertex="1" connectable="0" parent="4gxzHDE2BIGh4aAOhK9_-95">
          <mxGeometry x="0.301" y="-2" relative="1" as="geometry">
            <mxPoint as="offset" />
          </mxGeometry>
        </mxCell>
        <mxCell id="4gxzHDE2BIGh4aAOhK9_-100" style="edgeStyle=orthogonalEdgeStyle;rounded=0;orthogonalLoop=1;jettySize=auto;html=1;entryX=1;entryY=0.5;entryDx=0;entryDy=0;fontFamily=Helvetica;fontSize=12;fontColor=default;exitX=1;exitY=0.5;exitDx=0;exitDy=0;" edge="1" parent="4gxzHDE2BIGh4aAOhK9_-4" source="4gxzHDE2BIGh4aAOhK9_-83" target="4gxzHDE2BIGh4aAOhK9_-84">
          <mxGeometry relative="1" as="geometry">
            <mxPoint x="300" y="1250" as="sourcePoint" />
            <mxPoint x="770" y="1310" as="targetPoint" />
            <Array as="points">
              <mxPoint x="780" y="930" />
              <mxPoint x="780" y="1490" />
            </Array>
          </mxGeometry>
        </mxCell>
        <mxCell id="4gxzHDE2BIGh4aAOhK9_-102" style="edgeStyle=orthogonalEdgeStyle;rounded=0;orthogonalLoop=1;jettySize=auto;html=1;entryX=1;entryY=0.5;entryDx=0;entryDy=0;fontFamily=Helvetica;fontSize=12;fontColor=default;exitX=1;exitY=0.5;exitDx=0;exitDy=0;" edge="1" parent="4gxzHDE2BIGh4aAOhK9_-4" source="4gxzHDE2BIGh4aAOhK9_-85" target="4gxzHDE2BIGh4aAOhK9_-86">
          <mxGeometry relative="1" as="geometry">
            <mxPoint x="300" y="1250" as="sourcePoint" />
            <mxPoint x="770" y="1310" as="targetPoint" />
            <Array as="points">
              <mxPoint x="760" y="1020" />
              <mxPoint x="760" y="1340" />
            </Array>
          </mxGeometry>
        </mxCell>
        <mxCell id="4gxzHDE2BIGh4aAOhK9_-104" style="edgeStyle=orthogonalEdgeStyle;rounded=0;orthogonalLoop=1;jettySize=auto;html=1;entryX=1;entryY=0.5;entryDx=0;entryDy=0;fontFamily=Helvetica;fontSize=12;fontColor=default;exitX=1;exitY=0.5;exitDx=0;exitDy=0;" edge="1" parent="4gxzHDE2BIGh4aAOhK9_-4" source="4gxzHDE2BIGh4aAOhK9_-88" target="4gxzHDE2BIGh4aAOhK9_-89">
          <mxGeometry relative="1" as="geometry">
            <mxPoint x="300" y="1250" as="sourcePoint" />
            <mxPoint x="770" y="1310" as="targetPoint" />
            <Array as="points">
              <mxPoint x="740" y="1110" />
              <mxPoint x="740" y="1180" />
            </Array>
          </mxGeometry>
        </mxCell>
        <mxCell id="4gxzHDE2BIGh4aAOhK9_-105" style="edgeStyle=orthogonalEdgeStyle;rounded=0;orthogonalLoop=1;jettySize=auto;html=1;entryX=0;entryY=0.5;entryDx=0;entryDy=0;fontFamily=Helvetica;fontSize=12;fontColor=default;exitX=0;exitY=0.5;exitDx=0;exitDy=0;" edge="1" parent="4gxzHDE2BIGh4aAOhK9_-4" source="4gxzHDE2BIGh4aAOhK9_-89" target="4gxzHDE2BIGh4aAOhK9_-90">
          <mxGeometry relative="1" as="geometry">
            <mxPoint x="300" y="1250" as="sourcePoint" />
            <mxPoint x="770" y="1310" as="targetPoint" />
          </mxGeometry>
        </mxCell>
        <mxCell id="4gxzHDE2BIGh4aAOhK9_-106" style="edgeStyle=orthogonalEdgeStyle;rounded=0;orthogonalLoop=1;jettySize=auto;html=1;entryX=0;entryY=0.5;entryDx=0;entryDy=0;fontFamily=Helvetica;fontSize=12;fontColor=default;exitX=1;exitY=0.5;exitDx=0;exitDy=0;" edge="1" parent="4gxzHDE2BIGh4aAOhK9_-4" source="4gxzHDE2BIGh4aAOhK9_-90" target="4gxzHDE2BIGh4aAOhK9_-86">
          <mxGeometry relative="1" as="geometry">
            <mxPoint x="300" y="1330" as="sourcePoint" />
            <mxPoint x="770" y="1390" as="targetPoint" />
          </mxGeometry>
        </mxCell>
        <mxCell id="4gxzHDE2BIGh4aAOhK9_-107" style="edgeStyle=orthogonalEdgeStyle;rounded=0;orthogonalLoop=1;jettySize=auto;html=1;entryX=0;entryY=0.5;entryDx=0;entryDy=0;fontFamily=Helvetica;fontSize=12;fontColor=default;exitX=0.5;exitY=1;exitDx=0;exitDy=0;" edge="1" parent="4gxzHDE2BIGh4aAOhK9_-4" source="4gxzHDE2BIGh4aAOhK9_-86" target="4gxzHDE2BIGh4aAOhK9_-87">
          <mxGeometry relative="1" as="geometry">
            <mxPoint x="300" y="1330" as="sourcePoint" />
            <mxPoint x="770" y="1390" as="targetPoint" />
          </mxGeometry>
        </mxCell>
        <mxCell id="4gxzHDE2BIGh4aAOhK9_-108" style="edgeStyle=orthogonalEdgeStyle;rounded=0;orthogonalLoop=1;jettySize=auto;html=1;entryX=0;entryY=0.5;entryDx=0;entryDy=0;fontFamily=Helvetica;fontSize=12;fontColor=default;exitX=1;exitY=0.5;exitDx=0;exitDy=0;" edge="1" parent="4gxzHDE2BIGh4aAOhK9_-4" source="4gxzHDE2BIGh4aAOhK9_-87" target="4gxzHDE2BIGh4aAOhK9_-91">
          <mxGeometry relative="1" as="geometry">
            <mxPoint x="300" y="1330" as="sourcePoint" />
            <mxPoint x="770" y="1390" as="targetPoint" />
            <Array as="points">
              <mxPoint x="716" y="1400" />
              <mxPoint x="716" y="1440" />
              <mxPoint x="30" y="1440" />
              <mxPoint x="30" y="1590" />
            </Array>
          </mxGeometry>
        </mxCell>
        <mxCell id="4gxzHDE2BIGh4aAOhK9_-111" style="edgeStyle=orthogonalEdgeStyle;rounded=0;orthogonalLoop=1;jettySize=auto;html=1;entryX=0;entryY=0.5;entryDx=0;entryDy=0;fontFamily=Helvetica;fontSize=12;fontColor=default;exitX=0.5;exitY=1;exitDx=0;exitDy=0;" edge="1" parent="4gxzHDE2BIGh4aAOhK9_-4" source="4gxzHDE2BIGh4aAOhK9_-91" target="4gxzHDE2BIGh4aAOhK9_-110">
          <mxGeometry relative="1" as="geometry">
            <mxPoint x="320" y="1760" as="sourcePoint" />
            <mxPoint x="790" y="1820" as="targetPoint" />
          </mxGeometry>
        </mxCell>
        <mxCell id="4gxzHDE2BIGh4aAOhK9_-117" style="edgeStyle=orthogonalEdgeStyle;rounded=0;orthogonalLoop=1;jettySize=auto;html=1;entryX=1;entryY=0.5;entryDx=0;entryDy=0;fontFamily=Helvetica;fontSize=12;fontColor=default;exitX=1;exitY=0.5;exitDx=0;exitDy=0;" edge="1" parent="4gxzHDE2BIGh4aAOhK9_-4" source="4gxzHDE2BIGh4aAOhK9_-110" target="4gxzHDE2BIGh4aAOhK9_-112">
          <mxGeometry relative="1" as="geometry">
            <mxPoint x="173" y="1620" as="sourcePoint" />
            <mxPoint x="572" y="1640" as="targetPoint" />
          </mxGeometry>
        </mxCell>
        <mxCell id="4gxzHDE2BIGh4aAOhK9_-118" style="edgeStyle=orthogonalEdgeStyle;rounded=0;orthogonalLoop=1;jettySize=auto;html=1;entryX=0;entryY=0.5;entryDx=0;entryDy=0;exitX=0;exitY=0.5;exitDx=0;exitDy=0;" edge="1" parent="4gxzHDE2BIGh4aAOhK9_-4" source="4gxzHDE2BIGh4aAOhK9_-112" target="4gxzHDE2BIGh4aAOhK9_-113">
          <mxGeometry relative="1" as="geometry" />
        </mxCell>
        <mxCell id="4gxzHDE2BIGh4aAOhK9_-119" style="edgeStyle=orthogonalEdgeStyle;rounded=0;orthogonalLoop=1;jettySize=auto;html=1;entryX=0;entryY=0.5;entryDx=0;entryDy=0;fontFamily=Helvetica;fontSize=12;fontColor=default;exitX=1;exitY=0.5;exitDx=0;exitDy=0;" edge="1" parent="4gxzHDE2BIGh4aAOhK9_-4" source="4gxzHDE2BIGh4aAOhK9_-113" target="4gxzHDE2BIGh4aAOhK9_-114">
          <mxGeometry relative="1" as="geometry">
            <mxPoint x="320" y="1880" as="sourcePoint" />
            <mxPoint x="790" y="1940" as="targetPoint" />
          </mxGeometry>
        </mxCell>
        <mxCell id="4gxzHDE2BIGh4aAOhK9_-122" style="edgeStyle=orthogonalEdgeStyle;rounded=0;orthogonalLoop=1;jettySize=auto;html=1;entryX=1;entryY=0.5;entryDx=0;entryDy=0;fontFamily=Helvetica;fontSize=12;fontColor=default;exitX=0;exitY=0.5;exitDx=0;exitDy=0;" edge="1" parent="4gxzHDE2BIGh4aAOhK9_-4" source="4gxzHDE2BIGh4aAOhK9_-115" target="4gxzHDE2BIGh4aAOhK9_-116">
          <mxGeometry relative="1" as="geometry">
            <mxPoint x="260" y="1900" as="sourcePoint" />
            <mxPoint x="730" y="1960" as="targetPoint" />
          </mxGeometry>
        </mxCell>
        <mxCell id="4gxzHDE2BIGh4aAOhK9_-123" style="edgeStyle=orthogonalEdgeStyle;rounded=0;orthogonalLoop=1;jettySize=auto;html=1;entryX=1;entryY=0.5;entryDx=0;entryDy=0;fontFamily=Helvetica;fontSize=12;fontColor=default;exitX=0;exitY=0.5;exitDx=0;exitDy=0;" edge="1" parent="4gxzHDE2BIGh4aAOhK9_-4" source="4gxzHDE2BIGh4aAOhK9_-116" target="4gxzHDE2BIGh4aAOhK9_-44">
          <mxGeometry relative="1" as="geometry">
            <mxPoint x="260" y="1520" as="sourcePoint" />
            <mxPoint x="730" y="1580" as="targetPoint" />
          </mxGeometry>
        </mxCell>
      </root>
    </mxGraphModel>
  </diagram>
</mxfile>
